<svg width="75.334381" height="77.153107" viewBox="0 0 75.3344 77.1531" fill="none" xmlns="http://www.w3.org/2000/svg"
	xmlns:xlink="http://www.w3.org/1999/xlink">
	<path id="乐"
		d="M39.6966 0.0072422Q39.1597 0.0788231 38.7094 0.799347Q38.5219 2.9556 37.9125 4.54935Q37.3031 6.1431 36.2719 8.11185Q35.9906 9.5181 35.1938 10.3618Q34.9146 10.6574 34.5722 10.7919Q33.9371 11.0414 33.0844 10.7368Q31.0463 10.4589 30.244 11.3253Q30.2344 11.3357 30.225 11.3462Q29.4281 12.2368 29.3344 14.1118Q29.4281 17.5806 29.6156 20.5806Q29.8031 23.5806 29.3344 26.8618Q28.8656 27.8931 28.4906 28.69Q28.1156 29.4868 28.2094 30.6118Q28.3031 31.4556 28.5375 32.4868Q28.6154 32.8295 28.5639 33.1515Q28.4604 33.7985 27.8344 34.3618L24.8344 36.4243Q23.8031 36.7056 23.2406 36.6118Q23.1506 36.5968 23.0726 36.5578Q22.6631 36.3531 22.5844 35.4868Q22.3969 33.2368 21.975 31.2212Q21.5531 29.2056 20.1469 26.8618Q19.2432 25.9582 19.3173 25.1434Q19.3508 24.7748 19.5844 24.4243Q19.7719 24.1431 20.0063 23.9087Q20.7094 23.2056 21.8344 22.9243Q24.098 22.415 25.2515 21.0004Q26.0088 20.0716 26.2875 18.7525Q26.6438 17.0659 26.2177 15.6081Q25.8029 14.1891 24.6469 12.9868Q24.285 12.9303 23.9217 12.9195Q21.2737 12.8404 18.5531 15.19Q15.4594 17.8618 12.8344 20.4868Q11.0531 21.1431 10.6781 21.7525Q10.3031 22.3618 10.2094 23.8618Q9.27188 26.2993 9.45938 27.7993Q9.64688 29.2993 11.7094 31.3618Q11.8003 31.3618 11.8904 31.3528Q12.4501 31.2969 12.975 30.8931Q13.5844 30.4243 14.3344 30.0493Q15.2728 28.8763 16.1133 28.9427Q16.2805 28.9559 16.4438 29.0181Q16.6251 29.0872 16.7762 29.1976Q17.4454 29.6866 17.5219 30.9868Q17.3344 32.3931 16.9125 33.6587Q16.4906 34.9243 15.6469 36.4243Q14.4281 37.8306 14.3344 38.7212Q14.2406 39.6118 14.7094 41.1118Q14.8031 42.6118 15.1313 43.7837Q15.4594 44.9556 16.9594 46.3618Q17.7094 46.9243 18.2719 46.9712Q18.8344 47.0181 19.7719 46.3618Q20.8031 44.5806 22.725 42.94Q24.6469 41.2993 26.3344 39.2368Q27.5531 38.3931 28.0688 38.4868Q28.5844 38.5806 29.3344 39.9868Q29.6156 41.1118 30.0844 42.0493Q30.5531 42.9868 31.9594 44.1118Q32.8031 45.0493 33.4125 44.9556Q34.0219 44.8618 34.5844 43.7368Q34.5844 43.1032 34.8029 42.557Q34.8107 42.5375 34.8188 42.5181Q34.8667 42.4031 34.9401 42.3077Q35.2256 41.9364 35.8969 41.8618Q37.8656 41.1118 39.5063 40.4087Q41.1469 39.7056 43.0219 38.8618Q43.2369 38.6898 43.4815 38.6164Q43.7702 38.5299 44.1 38.5806Q44.2958 38.6107 44.448 38.7086Q44.7696 38.9153 44.8969 39.4243Q44.7766 40.0258 45.0035 40.4343Q45.1304 40.6626 45.3656 40.8306Q46.0219 41.2993 46.9594 42.0493Q47.5713 42.5738 47.9794 42.4463Q48.009 42.437 48.0375 42.4243Q48.4594 42.2368 48.6469 41.2993Q48.7406 39.8931 49.35 39.3775Q49.9594 38.8618 51.0844 38.4868Q53.9906 37.0806 56.2875 35.8618Q58.5844 34.6431 61.3969 32.4868Q62.7094 31.5493 62.85 30.6118Q62.9906 29.6743 62.1469 28.5493Q61.2094 27.0493 59.9906 26.0181Q58.7719 24.9868 58.2094 23.8618Q58.3969 21.7993 59.2875 19.69Q60.1781 17.5806 61.0219 15.6118L62.5219 13.3618Q62.9303 12.6811 62.8939 12.025Q62.8801 11.7776 62.8031 11.5337Q62.7594 11.3952 62.6952 11.2668Q62.3469 10.5702 61.3969 10.1743Q59.1469 9.98685 57.5063 10.5025Q57.4126 10.5319 57.3216 10.5679Q55.8175 11.1625 55.0219 13.5493Q54.9281 14.0181 54.5063 14.6743Q54.2172 15.124 54.3023 15.4857Q54.3413 15.6518 54.4594 15.7993L55.9594 15.9868Q56.2942 16.4556 56.2942 16.9243Q56.2942 17.1118 56.2406 17.2993Q56.0531 17.9556 55.9594 18.6118Q55.0219 20.6743 54.3656 22.69Q54.1045 23.492 54.1254 24.2867Q54.157 25.489 54.8344 26.6743Q54.9551 27.0365 55.1925 27.1461Q55.3237 27.2067 55.4906 27.19Q55.7294 27.1661 55.9439 27.2274Q56.1504 27.2864 56.3344 27.4243Q57.434 27.5029 57.8427 28.075Q57.9218 28.1857 57.975 28.315Q57.9938 28.3605 58.0093 28.4071Q58.2656 29.1761 57.6469 30.2368Q55.9594 32.2993 54.1313 33.7525Q52.3031 35.2056 50.5219 36.4243Q49.5844 36.7056 49.0688 36.6118Q48.9341 36.5874 48.841 36.5117Q48.5776 36.2977 48.6469 35.6743Q48.5531 31.0806 48.8813 27.0962Q49.2094 23.1118 50.3344 18.7993Q50.6156 18.2368 51.0844 17.6743Q51.2719 17.4493 51.3994 17.1943Q51.5906 16.8118 51.6469 16.3618Q51.6469 14.6743 51.1313 14.065Q50.6156 13.4556 48.8344 13.5493Q48.1781 13.5493 47.8031 13.315Q47.7935 13.309 47.7841 13.3027Q47.4257 13.0638 47.3344 12.4243Q47.3344 11.076 46.7284 10.1065Q46.6602 9.99738 46.5844 9.8931Q45.8344 8.86185 45.2719 7.73685Q44.9906 6.23685 44.8969 5.0181Q44.8843 4.85397 44.841 4.69834Q44.5632 3.69834 43.0219 3.04935Q42.4363 2.63108 42.112 2.06352Q42.0728 1.99502 42.0375 1.92435Q41.7094 1.2681 41.3344 0.799347Q40.3031 -0.0444031 39.7406 0.00247192Q39.7185 0.00431442 39.6966 0.0072422ZM45.0844 17.2993L46.0219 16.7368Q46.7278 16.7368 47.0085 17.0823Q47.1006 17.1957 47.1469 17.3462Q47.18 17.4538 47.2072 17.5628Q47.3344 18.0714 47.3344 18.6118L45.8344 31.5493Q45.7406 31.9243 45.4594 32.3931Q45.3055 32.6496 45.0955 32.7096Q44.9216 32.7593 44.7094 32.6743Q42.2719 30.7993 41.7563 29.5806Q41.7373 29.5359 41.7218 29.49Q41.3129 28.2861 43.2094 26.2993Q43.8656 25.5493 44.2875 24.7056Q44.6606 23.9594 44.5571 23.2865Q44.5436 23.1986 44.5219 23.1118Q44.3977 22.97 44.2484 22.8633Q43.6085 22.4062 42.5063 22.5962Q41.1469 22.8306 40.3969 23.2993Q39.5397 23.5565 38.9569 23.2651Q38.9022 23.2377 38.85 23.2056Q38.7302 23.1319 38.6593 23.0256Q38.3696 22.591 38.8969 21.6118Q40.0519 20.2918 41.4247 19.2622Q41.6119 19.1218 41.8031 18.9868Q43.3969 17.8618 45.0844 17.2993ZM38.3344 35.2056Q38.2406 35.5806 37.5844 36.2368Q37.5844 35.2056 37.6781 34.8306Q37.725 34.6431 37.8422 34.5728Q37.9594 34.5025 38.1469 34.5493Q38.2958 34.6982 38.3396 34.8734Q38.3785 35.0291 38.3344 35.2056ZM42.8344 41.9556Q42.1781 41.5806 40.7719 42.0493Q39.2736 43.3522 39.0654 44.836Q38.9739 45.4877 39.1313 46.1743Q39.3236 47.0135 39.079 47.6962Q38.6679 48.8439 37.0219 49.5493Q31.3031 51.3306 26.3813 52.5025Q21.4594 53.6743 16.0219 54.7993Q15.665 54.9183 15.5157 54.792Q15.4296 54.7192 15.4125 54.565Q15.4117 54.5581 15.4111 54.5511Q15.3733 54.1354 15.8344 53.6743Q17.1469 52.3618 17.1 51.7056Q17.0912 51.5825 17.028 51.5023Q16.7542 51.1548 15.4594 51.6118Q13.3969 52.8306 11.6625 53.6743Q9.92813 54.5181 7.77188 54.6118Q6.64688 55.4556 5.56876 55.8775Q4.68089 56.2249 3.82481 56.159Q3.64137 56.1449 3.45938 56.1118Q1.48524 56.1118 0.708325 57.0763Q0.56287 57.2569 0.459381 57.4712Q-0.196869 58.8306 0.0843811 60.7993Q0.178131 62.6743 0.834381 63.1431Q1.49063 63.6118 3.27188 63.2368Q6.17813 62.0181 8.70938 61.0337Q11.2406 60.0493 14.1469 59.2993Q14.3344 59.2618 14.5144 59.2843Q14.7844 59.3181 15.0375 59.4868Q15.0982 59.5273 15.1462 59.5793Q15.4324 59.8894 15.2719 60.6118Q14.8969 61.7368 15.0844 62.3931Q15.2719 63.0493 15.8344 64.3618Q15.8344 65.4868 15.6 66.3775Q15.3656 67.2681 15.8344 68.6743Q16.2094 69.5181 16.8656 70.5493Q17.5219 71.5806 18.2719 72.4243Q19.3031 72.6118 20.6156 71.7212Q21.9281 70.8306 22.9594 69.7993Q23.319 69.2399 23.8064 68.8338Q24.4625 68.287 25.35 68.0181Q26.4882 67.6732 27.398 67.9881Q27.7247 68.1012 28.0219 68.2993Q30.6469 69.8931 33.5063 71.2525Q33.8856 71.4328 34.2461 71.6454Q36.602 73.0348 38.1469 75.7993Q39.4436 77.0312 40.83 77.1421Q41.4483 77.1916 42.0844 77.0181Q42.9679 76.7771 43.5074 76.2093Q44.2272 75.4516 44.3344 74.1118Q44.4381 73.0232 44.3554 71.949Q44.2886 71.0804 44.1 70.2212Q43.6781 68.2993 43.5844 66.2368Q43.6781 62.3931 43.8188 59.1587Q43.9594 55.9243 44.8969 52.1743L45.0844 51.0493Q45.5792 50.2453 46.2984 49.8289Q46.6694 49.6141 47.1 49.5025Q48.3656 49.1743 49.5844 48.9868Q56.0531 47.0181 61.8656 46.2681Q67.6781 45.5181 73.9594 45.0493Q75.1022 44.6977 75.2971 44.0575Q75.31 44.015 75.3188 43.9712Q75.3479 43.8257 75.3228 43.6903Q75.2266 43.1711 74.3344 42.7993Q72.8344 41.9556 71.4281 41.7212Q70.4121 41.5519 69.4449 41.7007Q69.0735 41.7578 68.7094 41.8618Q62.9906 43.3618 58.1625 44.2993Q53.3344 45.2368 47.8969 46.5493Q46.2557 47.1238 45.5483 46.549Q45.4475 46.4671 45.3656 46.3618Q44.7094 45.5181 43.9594 43.9243Q43.4906 42.3306 42.8344 41.9556ZM31.9125 54.19Q34.1156 53.4868 35.8969 52.7368Q36.9281 52.6431 37.3969 52.69Q37.423 52.6926 37.4485 52.698Q37.8813 52.7891 38.1469 53.6743L38.1469 63.4243Q37.7719 65.3931 36.8813 65.6743Q35.9906 65.9556 34.3969 65.8618Q33.3656 65.8618 32.2406 65.6275Q31.6584 65.5062 31.252 65.1715Q30.873 64.8594 30.6469 64.3618Q30.4748 63.5874 30.7371 63.0105Q30.7605 62.9588 30.7875 62.9087Q31.1156 62.2993 31.9594 61.7368Q32.4365 61.0553 32.2942 60.5471Q32.2408 60.3563 32.1 60.19Q31.9988 60.0704 31.8742 59.9851Q31.3636 59.6358 30.4594 59.8618Q29.7094 59.9556 28.9594 60.2368Q28.2094 60.5181 27.4594 60.6118Q26.8632 59.9412 26.7113 59.1816Q26.6721 58.9856 26.6625 58.7837Q26.6556 58.6397 26.6398 58.4966Q26.547 57.6622 26.1469 56.8618Q26.0531 56.0181 26.2875 55.7837Q26.5219 55.5493 27.4594 55.3618Q29.7094 54.8931 31.9125 54.19ZM54.3188 54.6118Q52.9594 54.6118 51.6469 54.7993L50.7094 54.7993Q50.2955 54.7304 50.0085 54.8898Q49.9054 54.947 49.8188 55.0337Q49.724 55.1284 49.6801 55.2427Q49.5718 55.5242 49.7719 55.9243Q50.0904 57.915 51.2542 58.9926Q51.4607 59.1838 51.6938 59.3462Q53.2406 60.4243 55.3969 61.7368Q57.1076 62.136 58.7316 62.7606Q59.7775 63.1629 60.7875 63.6587Q63.3656 64.9243 66.0844 66.9868Q66.9649 67.8673 67.7807 67.8111Q68.3548 67.7715 68.8969 67.2681Q69.5609 66.6516 69.745 65.915Q69.9248 65.1957 69.6469 64.3618Q67.1156 60.4243 63.8813 57.94Q61.005 55.7307 57.8692 55.2636Q57.4788 55.2055 57.0844 55.1743Q55.6781 54.6118 54.3188 54.6118Z"
		fill="currentColor" fill-opacity="1.000000" fill-rule="evenodd" />
</svg>