<svg width="255.369202" height="121.169189" viewBox="0 0 255.369 121.169" fill="currentColor"
	xmlns="http://www.w3.org/2000/svg" xmlns:xlink="http://www.w3.org/1999/xlink">
	<defs />
	<path id="乐府"
		d="M199.392 13.6848Q200.658 14.5286 202.627 14.6692Q203.892 15.0911 205.369 16.5676Q206.845 18.0442 207.689 19.4504Q207.548 20.1536 206.634 20.927Q205.72 21.7004 204.877 22.2629Q199.533 24.5129 194.822 25.8489Q190.111 27.1848 184.908 29.5754Q183.361 29.9973 182.377 30.3489Q181.392 30.7004 180.127 30.4192Q176.33 28.3098 173.869 28.5208Q171.408 28.7317 168.033 29.5754Q162.711 30.6399 161.367 33.5445Q161.113 34.0935 161.002 34.7083Q160.298 38.5754 162.127 43.6379Q163.519 45.3782 165.294 45.9699Q165.67 46.0954 166.064 46.1692Q167.189 46.3801 168.314 46.3801Q169.439 46.3801 170.564 46.1692L175.064 45.3254Q176.752 45.1848 177.033 45.7473Q177.314 46.3098 177.033 47.8567Q175.205 52.6379 173.447 56.8567Q171.689 61.0754 168.877 65.5754Q165.502 73.3098 161.353 80.0598Q157.205 86.8098 152.283 94.5442Q151.58 96.3723 150.384 97.7786Q149.189 99.1848 147.502 100.45Q146.55 101.283 146.353 102.267Q146.317 102.446 146.306 102.63Q146.236 103.825 146.377 104.95Q145.955 107.06 145.673 108.958Q145.638 109.197 145.627 109.437Q145.551 111.104 146.658 112.825Q146.74 112.889 146.825 112.949Q148.616 114.229 151.369 114.161Q153.788 114.102 155.564 113.003Q155.904 112.793 156.22 112.544Q157.345 110.857 158.541 110.154Q159.736 109.45 161.283 108.607Q165.08 103.825 168.173 99.677Q171.267 95.5286 174.502 90.8879Q176.048 90.1848 177.525 90.1145Q179.002 90.0442 180.97 88.3567L185.47 84.4192Q186.455 83.4348 187.087 83.5754Q187.141 83.5874 187.191 83.6096Q187.72 83.8479 187.72 85.2629Q187.58 89.2004 187.58 93.1379Q187.58 97.0754 186.877 101.294Q186.696 101.656 186.696 102.017Q186.696 102.5 187.017 102.982Q187.58 103.825 188.564 104.95Q189.267 106.216 190.111 107.693Q190.938 109.14 192.171 109.709Q192.196 109.721 192.22 109.732Q198.188 109.189 199.25 106.619Q199.289 106.524 199.322 106.427Q200.236 103.685 199.814 98.7629Q199.955 95.9504 200.377 92.9973Q200.504 92.1032 200.761 91.2478Q201.352 89.2778 202.627 87.5129Q203.611 88.2161 204.033 89.9036Q204.455 91.5911 204.877 93.1379Q206.564 96.3723 208.322 99.1848Q210.08 101.997 212.47 105.513Q212.752 107.06 214.439 108.536Q216.127 110.013 217.814 111.419Q222.314 114.513 226.392 115.849Q230.47 117.185 234.689 120.7Q237.08 121.404 239.259 121.052Q239.29 121.047 239.32 121.042Q241.463 120.657 243.127 117.607Q243.689 115.216 244.181 113.669Q244.673 112.122 243.97 110.013Q243.689 106.779 243.127 104.247Q242.564 101.716 241.439 98.4817Q241.158 92.5754 240.525 87.4426Q239.892 82.3098 240.033 76.5442Q239.189 71.3411 239.048 66.7708Q238.908 62.2004 239.189 57.1379Q240.422 55.4258 242.005 54.1472Q243.672 52.8005 245.728 51.9348Q249.736 50.2473 253.252 48.1379Q255.22 46.5911 255.361 45.3958Q255.386 45.1822 255.335 44.9888Q255.1 44.0999 253.252 43.6379Q250.72 42.6536 248.47 42.7942Q246.22 42.9348 243.97 43.6379Q242.621 44.1775 241.596 43.8113Q241.552 43.7957 241.509 43.7786Q240.455 43.3567 239.752 41.6692Q239.691 40.3974 239.291 39.243Q238.763 37.7168 237.642 36.3958Q235.673 34.0754 233.845 31.2629Q231.964 30.4568 230.854 31.0627Q230.802 31.091 230.752 31.1223Q230.624 31.2019 230.515 31.3012Q229.658 32.08 229.908 34.0754Q230.892 38.1536 231.384 41.7395Q231.877 45.3254 231.314 49.5442Q230.71 50.5251 229.864 51.2024Q229.133 51.7873 228.22 52.1458Q226.252 52.9192 224.283 53.7629Q220.908 55.7317 217.814 57.4192Q214.72 59.1067 211.627 61.6379Q211.064 62.7629 211.345 63.1145Q211.353 63.1238 211.361 63.1328Q211.649 63.4623 212.47 63.3254Q216.408 63.3254 220.275 62.8333Q224.142 62.3411 228.22 60.5129Q229.767 59.9504 230.541 59.8801Q230.604 59.8744 230.665 59.8812Q231.36 59.9584 231.877 61.6379Q231.877 65.8567 232.369 69.3723Q232.861 72.8879 232.439 76.8254Q232.439 77.1067 232.087 77.4583Q231.979 77.5671 231.863 77.5749Q231.605 77.592 231.314 77.1067Q227.939 74.8567 224.634 73.9426Q221.33 73.0286 218.095 72.8879Q215.002 72.4661 212.681 71.8333Q210.361 71.2004 207.408 70.3567Q205.58 70.9192 204.525 71.1301Q203.47 71.3411 201.783 71.4817Q200.667 71.911 200.101 71.5277Q199.74 71.2833 199.603 70.7083Q199.475 70.1685 199.506 69.6382Q199.56 68.7177 200.095 67.8254Q202.486 64.5911 204.666 61.5676Q206.845 58.5442 208.533 55.4504Q208.979 53.1442 208.324 51.2119Q207.74 49.4916 206.283 48.0676Q204.936 46.751 203.802 46.9144Q202.332 47.1263 201.22 49.8254Q199.743 53.2342 197.669 56.2298Q197.176 56.9416 196.65 57.6301Q193.908 61.2161 189.97 65.0129Q189.156 65.2845 188.931 65.0317Q188.923 65.0226 188.916 65.0129Q188.892 64.981 188.876 64.9455Q188.753 64.6679 189.127 64.1692Q190.392 60.5129 191.728 57.3489Q193.064 54.1848 193.908 50.6692Q193.908 48.8411 194.33 47.0129Q194.49 46.3195 194.751 45.6665Q195.178 44.5981 195.877 43.6379Q196.017 42.5129 196.58 42.0208Q196.948 41.6983 197.377 41.5267Q197.603 41.4364 197.845 41.3879Q199.533 40.5442 200.306 39.2786Q200.485 38.9865 200.674 38.7019Q201.307 37.7533 202.064 36.8879Q204.877 34.3567 207.619 33.3723Q210.361 32.3879 213.314 30.9817Q219.642 29.1536 225.197 26.7629Q230.752 24.3723 237.22 22.2629Q238.934 21.787 239.681 20.6666Q240.037 20.1319 240.173 19.4504Q240.24 19.1174 240.24 18.7843Q240.24 17.008 238.345 15.2317Q236.236 13.9661 235.041 13.7551Q233.845 13.5442 231.877 13.5442Q229.908 12.7004 228.712 12.9114Q227.517 13.1223 225.689 14.6692Q223.439 15.0911 222.525 14.8801Q221.611 14.6692 220.627 12.4192Q219.548 7.97181 216.727 5.59095Q216.604 5.48749 216.478 5.38794Q215.406 4.54002 214.201 3.97516Q212.008 2.94744 209.377 2.85669Q207.408 2.15356 205.65 1.38013Q203.892 0.606689 201.783 0.325439Q198.451 -0.507437 196.703 0.791166Q195.795 1.4659 195.314 2.71606Q195.064 3.3662 194.965 4.03857Q194.508 7.14748 197.283 10.7317Q198.127 12.8411 199.392 13.6848ZM59.5448 2.51228Q58.7395 2.61965 58.0641 3.70044Q57.7828 6.93481 56.8687 9.32544Q55.9547 11.7161 54.4078 14.6692Q53.9859 16.7786 52.7906 18.0442Q52.3719 18.4875 51.8583 18.6893Q50.9057 19.0635 49.6266 18.6067Q46.5694 18.1898 45.366 19.4894Q45.3516 19.505 45.3375 19.5208Q44.1422 20.8567 44.0016 23.6692Q44.1422 28.8723 44.4234 33.3723Q44.7047 37.8723 44.0016 42.7942Q43.2984 44.3411 42.7359 45.5364Q42.1734 46.7317 42.3141 48.4192Q42.4547 49.6848 42.8062 51.2317Q42.9231 51.7457 42.8458 52.2287Q42.6905 53.1991 41.7516 54.0442L37.2516 57.1379Q35.7047 57.5598 34.8609 57.4192Q34.7259 57.3967 34.6089 57.3382Q33.9947 57.0311 33.8766 55.7317Q33.5953 52.3567 32.9625 49.3333Q32.3297 46.3098 30.2203 42.7942Q28.8648 41.4387 28.9759 40.2165Q29.0261 39.6636 29.3766 39.1379Q29.6578 38.7161 30.0094 38.3645Q31.0641 37.3098 32.7516 36.8879Q36.147 36.124 37.8772 34.0021Q39.0132 32.6088 39.4312 30.6301Q39.9657 28.1003 39.3265 25.9135Q38.7044 23.7851 36.9703 21.9817Q36.4275 21.8969 35.8826 21.8806Q31.9105 21.762 27.8297 25.2864Q23.1891 29.2942 19.2516 33.2317Q16.5797 34.2161 16.0172 35.1301Q15.4547 36.0442 15.3141 38.2942Q13.9078 41.9504 14.1891 44.2004Q14.4703 46.4504 17.5641 49.5442Q17.7005 49.5442 17.8356 49.5307Q18.6751 49.4467 19.4625 48.8411Q20.3766 48.1379 21.5016 47.5754Q22.9092 45.8159 24.17 45.9155Q24.4207 45.9353 24.6656 46.0286Q24.9376 46.1322 25.1642 46.2978Q26.1681 47.0314 26.2828 48.9817Q26.0016 51.0911 25.3687 52.9895Q24.7359 54.8879 23.4703 57.1379Q21.6422 59.2473 21.5016 60.5833Q21.3609 61.9192 22.0641 64.1692Q22.2047 66.4192 22.6969 68.177Q23.1891 69.9348 25.4391 72.0442Q26.5641 72.8879 27.4078 72.9583Q28.2516 73.0286 29.6578 72.0442Q31.2047 69.3723 34.0875 66.9114Q36.9703 64.4504 39.5016 61.3567Q41.3297 60.0911 42.1031 60.2317Q42.8766 60.3723 44.0016 62.4817Q44.4234 64.1692 45.1266 65.5754Q45.8297 66.9817 47.9391 68.6692Q49.2047 70.0754 50.1187 69.9348Q51.0328 69.7942 51.8766 68.1067Q51.8766 67.1563 52.2043 66.3369Q52.216 66.3077 52.2281 66.2786Q52.3 66.106 52.4101 65.9629Q52.8385 65.4061 53.8453 65.2942Q56.7984 64.1692 59.2594 63.1145Q61.7203 62.0598 64.5328 60.7942Q64.8553 60.5362 65.2223 60.4261Q65.6552 60.2962 66.15 60.3723Q66.4437 60.4175 66.672 60.5643Q67.1544 60.8744 67.3453 61.6379Q67.1649 62.5401 67.5053 63.1528Q67.6955 63.4953 68.0484 63.7473Q69.0328 64.4504 70.4391 65.5754Q71.3569 66.3621 71.9691 66.1708Q72.0135 66.157 72.0562 66.1379Q72.6891 65.8567 72.9703 64.4504Q73.1109 62.3411 74.025 61.5676Q74.9391 60.7942 76.6266 60.2317Q80.9859 58.1223 84.4312 56.2942Q87.8766 54.4661 92.0953 51.2317Q94.0641 49.8254 94.275 48.4192Q94.4859 47.0129 93.2203 45.3254Q91.8141 43.0754 89.9859 41.5286Q88.1578 39.9817 87.3141 38.2942Q87.5953 35.2004 88.9312 32.0364Q90.2672 28.8723 91.5328 25.9192L93.7828 22.5442Q94.3955 21.523 94.3408 20.539Q94.3202 20.1678 94.2047 19.802Q94.1391 19.5942 94.0428 19.4017Q93.5203 18.3567 92.0953 17.7629Q88.7203 17.4817 86.2594 18.2551Q86.1189 18.2993 85.9824 18.3532Q83.7262 19.2452 82.5328 22.8254Q82.3922 23.5286 81.7594 24.5129Q81.3257 25.1875 81.4534 25.73Q81.512 25.9791 81.6891 26.2004L83.9391 26.4817Q84.4413 27.1848 84.4413 27.8879Q84.4413 28.1692 84.3609 28.4504Q84.0797 29.4348 83.9391 30.4192Q82.5328 33.5129 81.5484 36.5364Q81.1567 37.7395 81.1881 38.9314Q81.2355 40.7349 82.2516 42.5129Q82.4327 43.0562 82.7887 43.2205Q82.9855 43.3114 83.2359 43.2864Q83.5941 43.2506 83.9158 43.3425Q84.2256 43.431 84.5016 43.6379Q86.151 43.7558 86.764 44.6139Q86.8827 44.78 86.9625 44.9739Q86.9906 45.0422 87.0139 45.1121Q87.3984 46.2656 86.4703 47.8567Q83.9391 50.9504 81.1969 53.1301Q78.4547 55.3098 75.7828 57.1379Q74.3766 57.5598 73.6031 57.4192Q73.4011 57.3825 73.2615 57.269Q72.8664 56.948 72.9703 56.0129Q72.8297 49.1223 73.3219 43.1458Q73.8141 37.1692 75.5016 30.7004Q75.9234 29.8567 76.6266 29.0129Q76.9078 28.6754 77.0991 28.2929Q77.3859 27.7192 77.4703 27.0442Q77.4703 24.5129 76.6969 23.5989Q75.9234 22.6848 73.2516 22.8254Q72.2672 22.8254 71.7047 22.4739Q71.6903 22.4649 71.6761 22.4554Q71.1386 22.0971 71.0016 21.1379Q71.0016 19.1155 70.0926 17.6611Q69.9903 17.4975 69.8766 17.3411Q68.7516 15.7942 67.9078 14.1067Q67.4859 11.8567 67.3453 10.0286Q67.3264 9.78237 67.2615 9.54893Q66.8449 8.04893 64.5328 7.07544Q63.6544 6.44804 63.168 5.5967Q63.1092 5.49395 63.0562 5.38794Q62.5641 4.40356 62.0016 3.70044Q60.4547 2.43481 59.6109 2.50513Q59.5778 2.50789 59.5448 2.51228ZM67.6266 28.4504L69.0328 27.6067Q70.0916 27.6067 70.5127 28.1249Q70.6508 28.2949 70.7203 28.5208Q70.7699 28.6821 70.8108 28.8456Q71.0016 29.6085 71.0016 30.4192L68.7516 49.8254Q68.6109 50.3879 68.1891 51.0911Q67.9582 51.4758 67.6432 51.5658Q67.3825 51.6403 67.0641 51.5129Q63.4078 48.7004 62.6344 46.8723Q62.606 46.8052 62.5826 46.7364Q61.9693 44.9306 64.8141 41.9504Q65.7984 40.8254 66.4312 39.5598Q66.9909 38.4405 66.8356 37.4312Q66.8153 37.2992 66.7828 37.1692Q66.5966 36.9564 66.3726 36.7964Q65.4127 36.1107 63.7594 36.3958Q61.7203 36.7473 60.5953 37.4504Q59.3096 37.8362 58.4353 37.399Q58.3533 37.358 58.275 37.3098Q58.0953 37.1992 57.989 37.0398Q57.5544 36.3879 58.3453 34.9192Q60.0778 32.9392 62.137 31.3948Q62.4178 31.1842 62.7047 30.9817Q65.0953 29.2942 67.6266 28.4504ZM57.5016 55.3098Q57.3609 55.8723 56.3766 56.8567Q56.3766 55.3098 56.5172 54.7473Q56.5875 54.4661 56.7633 54.3606Q56.9391 54.2551 57.2203 54.3254Q57.4436 54.5488 57.5093 54.8115Q57.5677 55.0451 57.5016 55.3098ZM64.2516 65.4348Q63.2672 64.8723 61.1578 65.5754Q58.9104 67.5297 58.598 69.7555Q58.4608 70.733 58.6969 71.7629Q58.9853 73.0217 58.6185 74.0456Q58.0018 75.7673 55.5328 76.8254Q46.9547 79.4973 39.5719 81.2551Q32.1891 83.0129 24.0328 84.7004Q23.4975 84.8789 23.2735 84.6894Q23.1444 84.5802 23.1187 84.3489Q23.1176 84.3385 23.1166 84.3281Q23.06 83.7045 23.7516 83.0129Q25.7203 81.0442 25.65 80.0598Q25.6368 79.8752 25.542 79.7549Q25.1314 79.2337 23.1891 79.9192Q20.0953 81.7473 17.4937 83.0129Q14.8922 84.2786 11.6578 84.4192Q9.97031 85.6848 8.35312 86.3176Q7.02132 86.8388 5.7372 86.74Q5.46203 86.7188 5.18906 86.6692Q2.22784 86.6692 1.06247 88.1159Q0.84429 88.3867 0.689056 88.7083Q-0.295319 90.7473 0.126556 93.7004Q0.267181 96.5129 1.25156 97.2161Q2.23593 97.9192 4.90781 97.3567Q9.26718 95.5286 13.0641 94.052Q16.8609 92.5754 21.2203 91.4504Q21.5016 91.3942 21.7716 91.4279Q22.1766 91.4786 22.5562 91.7317Q22.6472 91.7923 22.7193 91.8704Q23.1486 92.3355 22.9078 93.4192Q22.3453 95.1067 22.6266 96.0911Q22.9078 97.0754 23.7516 99.0442Q23.7516 100.732 23.4 102.068Q23.0484 103.404 23.7516 105.513Q24.3141 106.779 25.2984 108.325Q26.2828 109.872 27.4078 111.138Q28.9547 111.419 30.9234 110.083Q32.8922 108.747 34.4391 107.2Q34.9785 106.361 35.7096 105.752Q36.6937 104.932 38.025 104.529Q39.7323 104.011 41.097 104.484Q41.587 104.653 42.0328 104.95Q45.9703 107.341 50.2594 109.38Q50.8285 109.651 51.3691 109.969Q54.9029 112.054 57.2203 116.2Q59.1654 118.048 61.2449 118.215Q62.1724 118.289 63.1266 118.029Q64.4519 117.667 65.2611 116.815Q66.3408 115.679 66.5016 113.669Q66.6571 112.036 66.5331 110.425Q66.4329 109.122 66.15 107.833Q65.5172 104.95 65.3766 101.857Q65.5172 96.0911 65.7281 91.2395Q65.9391 86.3879 67.3453 80.7629L67.6266 79.0754Q68.3688 77.8693 69.4477 77.2447Q70.0041 76.9226 70.65 76.7551Q72.5484 76.2629 74.3766 75.9817Q84.0797 73.0286 92.7984 71.9036Q101.517 70.7786 110.939 70.0754Q112.653 69.548 112.946 68.5877Q112.965 68.5239 112.978 68.4583Q113.022 68.24 112.984 68.0369Q112.84 67.2581 111.502 66.7004Q109.252 65.4348 107.142 65.0833Q105.618 64.8292 104.167 65.0524Q103.61 65.1381 103.064 65.2942Q94.4859 67.5442 87.2437 68.9504Q80.0016 70.3567 71.8453 72.3254Q69.3835 73.1871 68.3224 72.3249Q68.1712 72.202 68.0484 72.0442Q67.0641 70.7786 65.9391 68.3879Q65.2359 65.9973 64.2516 65.4348ZM203.613 79.003Q203.985 78.3325 204.877 77.9504Q206.845 78.9348 208.322 80.0598Q209.798 81.1848 211.627 82.7317Q216.267 83.4348 220.837 83.4348Q225.408 83.4348 230.189 81.0442Q231.35 80.2706 232.096 80.5609Q232.164 80.5872 232.228 80.6223Q232.251 80.6346 232.273 80.648Q233.002 81.0935 233.002 82.7317Q232.861 87.0911 232.509 91.0989Q232.158 95.1067 231.877 99.6067Q231.595 102.138 230.541 102.982Q229.486 103.825 227.095 103.544Q223.158 102.419 219.431 100.45Q215.705 98.4817 211.908 95.6692Q209.095 91.5911 207.127 88.1458Q205.158 84.7004 203.189 80.7629Q203.189 80.3735 203.264 79.9991Q203.351 79.5622 203.541 79.1458Q203.574 79.0728 203.613 79.003ZM47.8687 83.7864Q51.1734 82.7317 53.8453 81.6067Q55.3922 81.4661 56.0953 81.5364Q56.1345 81.5403 56.1728 81.5484Q56.8219 81.685 57.2203 83.0129L57.2203 97.6379Q56.6578 100.591 55.3219 101.013Q53.9859 101.435 51.5953 101.294Q50.0484 101.294 48.3609 100.943Q47.4876 100.761 46.8779 100.259Q46.3095 99.7905 45.9703 99.0442Q45.7122 97.8826 46.1056 97.0171Q46.1408 96.9396 46.1812 96.8645Q46.6734 95.9504 47.9391 95.1067Q48.6547 94.0843 48.4413 93.3221Q48.3611 93.0359 48.15 92.7864Q47.9982 92.607 47.8113 92.4791Q47.0454 91.9551 45.6891 92.2942Q44.5641 92.4348 43.4391 92.8567Q42.3141 93.2786 41.1891 93.4192Q40.2948 92.4132 40.067 91.2739Q40.0082 90.9799 39.9937 90.677Q39.9835 90.4609 39.9596 90.2463Q39.8205 88.9946 39.2203 87.7942Q39.0797 86.5286 39.4312 86.177Q39.7828 85.8254 41.1891 85.5442Q44.5641 84.8411 47.8687 83.7864ZM81.4781 84.4192Q79.4391 84.4192 77.4703 84.7004L76.0641 84.7004Q75.4432 84.597 75.0127 84.8361Q74.8581 84.922 74.7281 85.052Q74.586 85.1941 74.5201 85.3654Q74.3577 85.7877 74.6578 86.3879Q75.1356 89.3739 76.8813 90.9903Q77.191 91.2771 77.5406 91.5208Q79.8609 93.1379 83.0953 95.1067Q85.6613 95.7054 88.0973 96.6423Q89.6663 97.2458 91.1812 97.9895Q95.0484 99.8879 99.1266 102.982Q100.447 104.302 101.671 104.218Q102.532 104.159 103.345 103.404Q104.341 102.479 104.617 101.374Q104.887 100.295 104.47 99.0442Q100.673 93.1379 95.8219 89.4114Q91.5075 86.0974 86.8038 85.3969Q86.2182 85.3096 85.6266 85.2629Q83.5172 84.4192 81.4781 84.4192Z"
		fill="#13c2c2" fill-opacity="1.000000" fill-rule="evenodd" />
</svg>